<svg version="1.2" xmlns="http://www.w3.org/2000/svg" viewBox="0 0 400 400" width="400" height="400">
	<title>New Project</title>
	<style>
		.s0 { fill: #ffffff } 
	</style>
	<path id="Layer 1" fill-rule="evenodd" class="s0" d="m58.6 341.4c-37.5-37.5-58.6-88.4-58.6-141.4 0-53 21.1-103.9 58.6-141.4 37.5-37.5 88.4-58.6 141.4-58.6 53 0 103.9 21.1 141.4 58.6 37.5 37.5 58.6 88.4 58.6 141.4 0 53-21.1 103.9-58.6 141.4-37.5 37.5-88.4 58.6-141.4 58.6-53 0-103.9-21.1-141.4-58.6zm26.5-256.3c-30.5 30.5-47.6 71.8-47.6 114.9 0 43.1 17.1 84.4 47.6 114.9 30.5 30.5 71.8 47.6 114.9 47.6 43.1 0 84.4-17.1 114.9-47.6 30.5-30.5 47.6-71.8 47.6-114.9 0-43.1-17.1-84.4-47.6-114.9-30.5-30.5-71.8-47.6-114.9-47.6-43.1 0-84.4 17.1-114.9 47.6zm78.1 51.6l36.7 36.7 36.7-36.7c7.3-7.3 19.2-7.2 26.5 0 7.4 7.3 7.4 19.2 0 26.5l-36.7 36.7 36.7 36.7c7.4 7.3 7.3 19.2 0 26.5-7.2 7.4-19.1 7.4-26.5 0l-36.7-36.7-36.7 36.7c-7.3 7.4-19.1 7.3-26.5 0-7.3-7.2-7.3-19.1 0-26.5l36.7-36.7-36.7-36.7c-7.3-7.3-7.3-19.1 0-26.5 7.3-7.3 19.2-7.3 26.5 0z"/>
</svg>