<svg version="1.2" xmlns="http://www.w3.org/2000/svg" viewBox="0 0 400 400" width="400" height="400">
	<title>New Project</title>
	<style>
		.s0 { fill: #ffffff } 
	</style>
	<path id="Shape 2" fill-rule="evenodd" class="s0" d="m140.6 134v-33.6c0-32.9 26.6-59.5 59.4-59.5 32.8 0 59.4 26.6 59.4 59.5v126.8l11 8.6c5.7-10.9 8.8-23.2 8.8-36.4v-24.7c0-8.3 6.7-14.9 14.9-14.9 8.2 0 14.8 6.6 14.8 14.9v24.7c0 20.1-5.3 38.9-14.7 55l98.2 77c6.4 5.1 7.6 14.4 2.5 20.8-5.1 6.5-14.4 7.7-20.8 2.6l-366.5-287.3c-6.4-5.1-7.6-14.4-2.5-20.9 5.1-6.4 14.4-7.6 20.8-2.5zm74.3 194.2h29.7c8.3 0 14.9 6.6 14.9 14.9 0 8.2-6.6 14.8-14.9 14.8h-89.1c-8.2 0-14.9-6.6-14.9-14.8 0-8.3 6.7-14.9 14.9-14.9h29.7v-20.8c-53.1-7.2-94.1-52.8-94.1-108v-24.7q0-2 0.4-3.8l29.3 23.1v5.4c0 43.8 35.5 79.3 79.3 79.3 8.2 0 16.1-1.3 23.6-3.5l26.7 20.9c-10.9 5.7-22.9 9.6-35.5 11.3z"/>
</svg>