<svg version="1.2" xmlns="http://www.w3.org/2000/svg" viewBox="0 0 400 400" width="400" height="400">
	<title>New Project</title>
	<style>
		.s0 { fill: #ffffff } 
	</style>
	<path id="Layer 2" fill-rule="evenodd" class="s0" d="m0 200c0-53 21.1-103.9 58.6-141.4 37.5-37.5 88.4-58.6 141.4-58.6 53 0 103.9 21.1 141.4 58.6 37.5 37.5 58.6 88.4 58.6 141.4 0 53-21.1 103.9-58.6 141.4-37.5 37.5-88.4 58.6-141.4 58.6-53 0-103.9-21.1-141.4-58.6-37.5-37.5-58.6-88.4-58.6-141.4zm362.5 0c0-43.1-17.1-84.4-47.6-114.9-30.5-30.5-71.8-47.6-114.9-47.6-43.1 0-84.4 17.1-114.9 47.6-30.5 30.5-47.6 71.8-47.6 114.9 0 43.1 17.1 84.4 47.6 114.9 30.5 30.5 71.8 47.6 114.9 47.6 43.1 0 84.4-17.1 114.9-47.6 30.5-30.5 47.6-71.8 47.6-114.9zm-187.5-56.3v112.5c0 10.4-8.4 18.8-18.8 18.8-10.3 0-18.7-8.4-18.7-18.8v-112.5c0-10.3 8.4-18.7 18.8-18.7 10.3 0 18.7 8.4 18.7 18.7zm87.5 0v112.5c0 10.4-8.4 18.8-18.8 18.8-10.3 0-18.7-8.4-18.7-18.8v-112.5c0-10.3 8.4-18.7 18.8-18.7 10.3 0 18.7 8.4 18.7 18.7z"/>
</svg>