<svg version="1.2" xmlns="http://www.w3.org/2000/svg" viewBox="0 0 400 400" width="400" height="400">
	<title>New Project</title>
	<style>
		.s0 { fill: #ffffff } 
	</style>
	<path id="Layer 3" fill-rule="evenodd" class="s0" d="m0 200c0-53 21.1-103.9 58.6-141.4 37.5-37.5 88.4-58.6 141.4-58.6 53 0 103.9 21.1 141.4 58.6 37.5 37.5 58.6 88.4 58.6 141.4 0 53-21.1 103.9-58.6 141.4-37.5 37.5-88.4 58.6-141.4 58.6-53 0-103.9-21.1-141.4-58.6-37.5-37.5-58.6-88.4-58.6-141.4zm362.5 0c0-43.1-17.1-84.4-47.6-114.9-30.5-30.5-71.8-47.6-114.9-47.6-43.1 0-84.4 17.1-114.9 47.6-30.5 30.5-47.6 71.8-47.6 114.9 0 43.1 17.1 84.4 47.6 114.9 30.5 30.5 71.8 47.6 114.9 47.6 43.1 0 84.4-17.1 114.9-47.6 30.5-30.5 47.6-71.8 47.6-114.9zm-215.4-85.1c5.9-3.3 13.1-3.2 19 0.4l112.5 68.8c5.5 3.4 9 9.4 9 16 0 6.5-3.5 12.6-9 16l-112.5 68.7c-5.8 3.6-13.1 3.7-19 0.4-5.9-3.2-9.6-9.5-9.6-16.3v-137.7c0-6.7 3.7-13 9.6-16.3z"/>
</svg>