<svg version="1.2" xmlns="http://www.w3.org/2000/svg" viewBox="0 0 400 400" width="400" height="400">
	<title>New Project</title>
	<style>
		.s0 { fill: #ffffff } 
	</style>
	<path id="Shape 1" fill-rule="evenodd" class="s0" d="m200 62.5c-89.8 0-162.5 72.7-162.5 162.5v81.3c0 10.3-8.4 18.7-18.8 18.7-10.3 0-18.7-8.4-18.7-18.7v-81.3c0-110.5 89.5-200 200-200 110.5 0 200 89.5 200 200v81.3c0 10.3-8.4 18.7-18.8 18.7-10.3 0-18.7-8.4-18.7-18.7v-81.3c0-89.8-72.7-162.5-162.5-162.5zm-137.5 212.5c0-27.6 22.4-50 50-50h12.5c13.8 0 25 11.2 25 25v100c0 13.8-11.2 25-25 25h-12.5c-27.6 0-50-22.4-50-50zm225-50c27.6 0 50 22.4 50 50v50c0 27.6-22.4 50-50 50h-12.5c-13.8 0-25-11.2-25-25v-100c0-13.8 11.2-25 25-25z"/>
</svg>